<svg xmlns="http://www.w3.org/2000/svg" viewBox="0 0 256 256" fill="#d7dae0">
  <path d="m196.714289,111.714287l-48.57143,0c-1.428571,0 -2.857143,-1.428571 -2.857143,-2.857143l0,-48.57143a14.285715,14.285715 0 0 0 -28.571429,0l0,48.57143c0,1.428571 -1.428571,2.857143 -2.857143,2.857143l-48.57143,0a14.285715,14.285715 0 0 0 0,28.571429l48.57143,0c1.428571,0 2.857143,1.428571 2.857143,2.857143l0,48.57143a14.285715,14.285715 0 0 0 28.571429,0l0,-48.57143c0,-1.428571 1.428571,-2.857143 2.857143,-2.857143l48.57143,0a14.285715,14.285715 0 0 0 0,-28.571429zm0,0"/>
</svg>
