<svg xmlns="http://www.w3.org/2000/svg" viewBox="0 0 256 256" fill="#d7dae0">
    <path d="M153.863548 52.636828l-6.895359-1.890324c-.887525-.295972-1.76181-.202896-2.611949.278447-.852865.481733-1.428842 1.204916-1.724813 2.168381l-41.472629 143.541547c-.295972.963855-.203286 1.872799.278447 2.724107.481733.852865 1.203358 1.427284 2.168381 1.723256l6.893412 1.891103c.889473.298308 1.760642.204843 2.613118-.277279.852865-.484069 1.427673-1.204916 1.723256-2.166824l41.473798-143.543884c.295582-.963465.203675-1.87241-.278836-2.725665-.482122-.852865-1.202969-1.427284-2.166824-1.722866zM91.711462 80.657549c0-.963465-.371133-1.81672-1.11223-2.557428l-5.559982-5.559593c-.741097-.741097-1.593963-1.11262-2.557428-1.11262s-1.81672.371912-2.557428 1.11262l-51.812163 51.812163c-.742266.741097-1.11223 1.593963-1.11223 2.557428 0 .963465.371133 1.816331 1.11223 2.557039l51.811774 51.812163c.740708.742266 1.592405 1.111451 2.557428 1.111451s1.81672-.370354 2.557428-1.111451l5.559982-5.556477c.741097-.740708 1.11223-1.593963 1.11223-2.558596 0-.962297-.371133-1.815163-1.11223-2.55587l-43.695921-43.698258 43.696311-43.695142c.742266-.740708 1.11223-1.593963 1.11223-2.557428zM229.356554 124.351523l-51.813332-51.812163c-.740708-.740708-1.593963-1.11262-2.55587-1.11262-.965023 0-1.815163.371912-2.558596 1.11262l-5.557645 5.559203c-.740708.741097-1.110283 1.592794-1.110283 2.557428s.369186 1.81672 1.110283 2.557428l43.69709 43.696311-43.69709 43.698647c-.740708.740708-1.110283 1.593963-1.110283 2.55587 0 .965023.369186 1.817889 1.110283 2.558596l5.557645 5.556477c.743434.742266 1.593963 1.111451 2.558596 1.111451.962297 0 1.815163-.370354 2.55587-1.111451l51.813332-51.811774c.741097-.740708 1.111451-1.595131 1.111451-2.558596 0-.963855-.370354-1.81672-1.111451-2.557428z"/>
</svg>
