<svg xmlns="http://www.w3.org/2000/svg" viewBox="0 0 256 256" fill="#69E780">
  <path d="M148 113l-7-6a41 41 0 0 0-51 6l-38 38a41 41 0 0 0 58 58l31-31a3 3 0 0 0-2-5h-1c-6 0-13-1-19-4l-3 1-22 22a18 18 0 1 1-25-25l37-37c7-7 19-7 25 0 5 4 12 4 17 0 2-2 3-5 3-8 1-3-1-7-3-9z"/>
  <path d="M205 56a41 41 0 0 0-58 0l-31 31a3 3 0 0 0 2 5h1c6 0 13 1 19 4l3-1 22-22a18 18 0 1 1 25 25l-28 28-9 10c-7 6-19 6-25 0-5-5-12-5-17 0a12 12 0 0 0 0 16c3 4 7 6 12 8l2 1 2 1 1 1h2a48 48 0 0 0 8 1h9l1-1h2c7-2 14-6 19-11l38-37c16-17 16-43 0-59z"/>
</svg>
