<?xml version="1.0" encoding="iso-8859-1"?>
<!-- Generator: Adobe Illustrator 19.0.0, SVG Export Plug-In . SVG Version: 6.00 Build 0)  -->
<svg version="1.1" id="Capa_1" xmlns="http://www.w3.org/2000/svg" xmlns:xlink="http://www.w3.org/1999/xlink" x="0px" y="0px"
	 viewBox="0 0 512 512" style="enable-background:new 0 0 512 512;" xml:space="preserve">
<g>
	<g>
		<path d="M341.333,281.6c-28.237,0-51.2,22.963-51.2,51.2c0,28.237,22.963,51.2,51.2,51.2c28.237,0,51.2-22.963,51.2-51.2
			C392.533,304.563,369.57,281.6,341.333,281.6z M341.333,366.933c-18.825,0-34.133-15.309-34.133-34.133
			c0-18.825,15.309-34.133,34.133-34.133c18.825,0,34.133,15.309,34.133,34.133C375.467,351.625,360.158,366.933,341.333,366.933z"
			/>
	</g>
</g>
<g>
	<g>
		<path d="M358.4,366.933v35.26l-12.339-8.226c-2.867-1.92-6.596-1.92-9.464,0l-12.331,8.226v-35.26H307.2v51.2
			c0,3.149,1.732,6.042,4.514,7.526c2.765,1.485,6.144,1.314,8.755-0.427l20.864-13.909l20.864,13.909
			c1.425,0.947,3.081,1.434,4.736,1.434c1.382,0,2.765-0.333,4.028-1.007c2.773-1.485,4.506-4.378,4.506-7.526v-51.2H358.4z"/>
	</g>
</g>
<g>
	<g>
		<rect x="196.267" y="85.333" width="110.933" height="17.067"/>
	</g>
</g>
<g>
	<g>
		<rect x="119.467" y="136.533" width="273.067" height="17.067"/>
	</g>
</g>
<g>
	<g>
		<rect x="119.467" y="187.733" width="187.733" height="17.067"/>
	</g>
</g>
<g>
	<g>
		<rect x="341.333" y="187.733" width="51.2" height="17.067"/>
	</g>
</g>
<g>
	<g>
		<rect x="119.467" y="238.933" width="273.067" height="17.067"/>
	</g>
</g>
<g>
	<g>
		<rect x="119.467" y="290.133" width="102.4" height="17.067"/>
	</g>
</g>
<g>
	<g>
		<rect x="119.467" y="332.8" width="42.667" height="17.067"/>
	</g>
</g>
<g>
	<g>
		<rect x="196.267" y="332.8" width="25.6" height="17.067"/>
	</g>
</g>
<g>
	<g>
		<path d="M469.333,0c-23.526,0-42.667,19.14-42.667,42.667v17.067c0,4.71,3.814,8.533,8.533,8.533h68.267
			c4.719,0,8.533-3.823,8.533-8.533V42.667C512,19.14,492.86,0,469.333,0z M494.933,51.2h-51.2v-8.533
			c0-14.114,11.486-25.6,25.6-25.6s25.6,11.486,25.6,25.6V51.2z"/>
	</g>
</g>
<g>
	<g>
		<path d="M469.333,0h-358.4C87.407,0,68.267,19.14,68.267,42.667v409.6h17.067v-409.6c0-14.114,11.486-25.6,25.6-25.6h324.284
			c-5.367,7.134-8.55,16-8.55,25.6v426.667c0,14.114-11.486,25.6-25.6,25.6H76.8V512h324.267c23.526,0,42.667-19.14,42.667-42.667
			V42.667c0-14.114,11.486-25.6,25.6-25.6c4.719,0,8.533-3.823,8.533-8.533S474.052,0,469.333,0z"/>
	</g>
</g>
<g>
	<g>
		<path d="M401.067,494.933c-14.114,0-25.6-11.486-25.6-25.6v-17.067c0-4.719-3.814-8.533-8.533-8.533H8.533
			c-4.71,0-8.533,3.814-8.533,8.533v17.067C0,492.86,19.14,512,42.667,512h358.4c4.719,0,8.533-3.814,8.533-8.533
			C409.6,498.748,405.786,494.933,401.067,494.933z M42.667,494.933c-14.114,0-25.6-11.486-25.6-25.6V460.8H358.4v8.533
			c0,9.6,3.183,18.466,8.55,25.6H42.667z"/>
	</g>
</g>
<g>
</g>
<g>
</g>
<g>
</g>
<g>
</g>
<g>
</g>
<g>
</g>
<g>
</g>
<g>
</g>
<g>
</g>
<g>
</g>
<g>
</g>
<g>
</g>
<g>
</g>
<g>
</g>
<g>
</g>
</svg>
