<svg xmlns="http://www.w3.org/2000/svg" viewBox="0 0 256 256" fill="#d7dae0">
	<path d="m159.332785,140.650281c-11.195495,0 -20.299938,9.104443 -20.299938,20.299938c0,11.195495 9.104443,20.299938 20.299938,20.299938c11.195495,0 20.299938,-9.104443 20.299938,-20.299938c0,-11.195495 -9.104443,-20.299938 -20.299938,-20.299938zm0,33.833097c-7.463795,0 -13.53316,-6.069761 -13.53316,-13.53316c0,-7.463795 6.069761,-13.53316 13.53316,-13.53316c7.463795,0 13.53316,6.069761 13.53316,13.53316c0.000396,7.463795 -6.069364,13.53316 -13.53316,13.53316z"/>
	<path d="M166.099563 174.483378l0 13.979996-4.892206-3.26147c-1.136717-.761248-2.615203-.761248-3.752317 0l-4.889034 3.26147 0-13.979996-6.766382 0 0 20.299938c0 1.248525.686709 2.395551 1.789725 2.983932 1.096276.588777 2.435993.520979 3.47121-.169298l8.272225-5.514684 8.272225 5.514684c.564988.37547 1.221565.568557 1.877744.568557.54794 0 1.096276-.132029 1.597034-.399259 1.099448-.588777 1.786553-1.735803 1.786553-2.983932l0-20.299938-6.766778 0zM102 63H146V70H102zM71 83H179V90H71zM71 103H145V110H71zM159 103H179V110H159zM71 124H179V131H71zM71 144H112V151H71zM71 161H88V168H71zM102 161H112V168H102zM210.082629 29.000624c-9.327663 0-16.916747 7.588688-16.916747 16.916747l0 6.766778c0 1.867436 1.512187 3.383191 3.383191 3.383191l27.066716 0c1.871004 0 3.383191-1.515755 3.383191-3.383191l0-6.766778c.000396-9.328059-7.588291-16.916747-16.91635-16.916747zm10.149969 20.299938l-20.299938 0 0-3.383191c0-5.595963 4.554006-10.149969 10.149969-10.149969s10.149969 4.554006 10.149969 10.149969l0 3.383191z"/>
	<path d="m210.082629,29.000624l-142.099563,0c-9.327663,0 -16.91635,7.588688 -16.91635,16.916747l0,162.3995l6.766778,0l0,-162.3995c0,-5.595963 4.554006,-10.149969 10.149969,-10.149969l128.573144,0c-2.127925,2.828511 -3.389931,6.34373 -3.389931,10.149969l0,169.166278c0,5.595963 -4.554006,10.149969 -10.149969,10.149969l-128.5668,0l0,6.766382l128.566403,0c9.327663,0 16.916747,-7.588688 16.916747,-16.916747l0,-169.165882c0,-5.595963 4.554006,-10.149969 10.149969,-10.149969c1.871004,0 3.383191,-1.515755 3.383191,-3.383191s-1.512583,-3.383587 -3.383587,-3.383587z"/>
	<path d="m183.01631,225.233222c-5.595963,0 -10.149969,-4.554006 -10.149969,-10.149969l0,-6.766778c0,-1.871004 -1.512187,-3.383191 -3.383191,-3.383191l-142.099959,0c-1.867436,0 -3.383191,1.512187 -3.383191,3.383191l0,6.766778c0,9.328059 7.588688,16.916747 16.916747,16.916747l142.099563,0c1.871004,0 3.383191,-1.512187 3.383191,-3.383191c0,-1.871004 -1.512187,-3.383587 -3.383191,-3.383587zm-142.099563,0c-5.595963,0 -10.149969,-4.554006 -10.149969,-10.149969l0,-3.383191l135.332785,0l0,3.383191c0,3.806238 1.262006,7.321458 3.389931,10.149969l-128.572747,0z"/>
</svg>
