<svg xmlns="http://www.w3.org/2000/svg" viewBox="0 0 100 100" fill="#d7dae0">
	<path d="M98.6,26.4c0-4.8-3.9-8.7-8.7-8.7H43c-4.8,0-8.7,3.9-8.7,8.7v35.4c0,4.8,3.9,8.7,8.7,8.7h8.8v10c0,1.6,1.9,2.4,3,1.2  L66,70.6c0,0,0-0.1,0.1-0.1h23.9c4.8,0,8.7-3.9,8.7-8.7V26.4z M64.1,29.8h4.6c0.5,0,1,0.4,1,1l-0.5,18.8c0,0.5-0.4,0.8-0.8,0.8h-3.8  c-0.5,0-0.8-0.4-0.8-0.8l-0.5-18.8C63.2,30.2,63.6,29.8,64.1,29.8z M69.7,57c0,0.8-0.6,1.4-1.4,1.4h-3.7c-0.8,0-1.4-0.6-1.4-1.4  v-2.4c0-0.8,0.6-1.4,1.4-1.4h3.7c0.8,0,1.4,0.6,1.4,1.4V57z M1.4,28.2c0-2.2,1.8-4,4-4H23c2.2,0,4,1.8,4,4v0c0,2.2-1.8,4-4,4H5.4  C3.2,32.2,1.4,30.4,1.4,28.2z M26.9,44.1c0,2.2-1.8,4-4,4h-13c-2.2,0-4-1.8-4-4c0-2.2,1.8-4,4-4h13C25.2,40.1,26.9,41.9,26.9,44.1  L26.9,44.1z M26.9,60L26.9,60c0,2.2-1.8,4-4,4H15c-2.2,0-4-1.8-4-4v0c0-2.2,1.8-4,4-4H23C25.2,56,26.9,57.8,26.9,60z"></path>
</svg>
