<svg xmlns="http://www.w3.org/2000/svg" viewBox="0 0 512 512" fill="#d7dae0">
    <path d="M220 314h42v25h-42v-25zm-47-3a15 15 0 1 0 0 31 15 15 0 0 0 0-31zm172-76H220v25h125v-25zm-172-3a15 15 0 1 0 0 31 15 15 0 0 0 0-31zm172-71H220v25h125v-25zm-172-3a15 15 0 1 0 0 31 15 15 0 0 0 0-31zm-52 213V128c0-7 5-12 12-12h243c7 0 12 5 12 12v140h25V128c0-20-17-37-37-37H133c-20 0-37 17-37 37v243c0 20 17 37 37 37h143v-25H133c-7 0-12-5-12-12zm274 37l-24-25a56 56 0 1 1 18-17l24 24-18 18zm-53-42a31 31 0 1 0 0-62 31 31 0 0 0 0 62zm0 0"/>
</svg>
