<svg xmlns="http://www.w3.org/2000/svg" viewBox="0 0 400 400" fill="#d7dae0">
  <g fill-rule="evenodd">
    <path d="M204 0v1c0-1 0 0 0 0l-2 1-1 1h-1c0 1 0 1 0 0v1h-1-1v1h-1l-2 1s-1 0 0 0l-1 1h-1l-1 1h-1l-1 1c0-1 0 0 0 0l-1 1h-1l-1 1-2 1-2 1c0-1 0 0 0 0l-1 1h-2l-1 1-1 1-1 1h-1l-1 1s-1 0 0 0h-1-1v1l-1 1h-1l-1 1h-1l-1 1h-1l-1 1h-1l-1 1-1 1h-1l-2 1-1 1h-1v1h-1l-1 1h-1l-1 1-2 1-1 1h-1l-1 1h-1l-1 1h-1v1h-1l-2 1s-1 0 0 0l-2 1-1 1h-1l-1 1c0-1 0 0 0 0l-1 1h-1l-1 1h-1l-1 1s-1 0 0 0l-1 1h-1l-1 1h-2l-1 1-1 1-1 1h-1l-1 1s-1 0 0 0h-1-1v1l-1 1h-1l-2 1-1 1h-1l-1 1h-1l-1 1h-1l-1 1-1 1h-1l-1 1-1 1h-1l-1 1h-1l-1 1-1 1h-1l-1 1h-1l-1 1-2 1h-1l-1 1-2 1s-1 0 0 0l-2 1-1 1h-1l-1 1c0-1 0 0 0 0l-1 1h-1l-1 1h-1l-1 1s-1 0 0 0l-1 1h-1l-1 1h-1l-1 1h-1l-1 1-1 1h-1l-2 1-1 1h-1v1h-1l-2 1-1 1h-1l-1 1h-1l-1 1-1 1h-1l-1 1h-1l-1 1-2 1s-1 0 0 0l-1 1h-1l-1 1-1 1h-1l-1 1h-1l-1 1-2 1h-1l-1 1-2 1s-1 0 0 0l-1 1h-1l-1 1-4 1-1-1h-3v12l4-1v-1h1l2-1c0-1 2-2 3-1v-1l1-1v-1l-2-2c1 0 1 0 0 0h-1l3-1 1-1 1-1h2l1-1 3-1v-1l1-1 2-1 2-1h1l2-1 2-1 1-1 1-1s1 0 0 0h1l1-1 2-1 1-1 1-1h2l1-1 2-1 2-1v-1h1l2-1c0-1 2-2 3-1v-1l1-1 3-1 1-1h1l1-1c1 1 1 1 0 0l1-1h2c1-2 3-2 3-2l1-1 1-1h2l1-1 3-1v-1l1-1 2-1 1-1h2l2-2h1l1-1c0 1 0 0 0 0l1-1h1l2-1 2-1 1-1 1-1h2l1-1 2-1 2-1v-1l2-1 2-1 2-1 1-1 3-1 3-1v-1l1-1 2-1 2-1h1l1-1 1-1h2l1-1 3-2 2-1 1-1 1-1h2l1-1c0 1 0 0 0 0l1-1h1l1-1c0 1 0 0 0 0l1-1h2l1-1 2-1 1-1 1-1h2l1-1 2-1 2-1v-1l2-1 2-1h1l1-1 1-1h2l1-1 3-1v-1l1-1 2-1 2-1h1l1-1 1-1h2l1-1 1-1s1 0 0 0h1l1-1 2-1 1-1 1-1 3-1-3-1h-3m30 16l-1 1h-1l-1 1h-1l-1 1-2 1h-1l-1 1-2 1s-1 0 0 0l-1 1h-1l-1 1h-1l-1 1c0-1 0 0 0 0l-1 1h-1l-1 1h-1l-1 1s-1 0 0 0l-1 1h-1l-1 1h-1l-1 1h-1l-1 1-1 1h-1l-2 1-1 1h-1v1h-1l-2 1-1 1h-1l-1 1h-1l-1 1-1 1h-1l-1 1h-1v1h-1l-2 1s-1 0 0 0l-1 1h-1l-1 1h-1l-1 1c0-1 0 0 0 0l-1 1h-1l-1 1-2 1-2 1c0-1 0 0 0 0l-2 1s-1 0 0 0l-1 1h-1l-1 1-1 1h-1l-1 1-2 1-2 1-1 1h-1l-1 1h-1l-1 1h-1l-1 1-1 1h-1l-2 1-1 1h-1v1l-3 2h-1l-2 1-2 1-1 1h-1l-1 1h-1v1h-1l-2 1s-1 0 0 0l-2 1-1 1h-1l-1 1c0-1 0 0 0 0l-1 1h-1l-1 1h-1l-2 1-1 1-1 1h-2l-1 1-1 1-1 1h-1l-1 1s-1 0 0 0h-1-1v1l-1 1h-1l-2 1-1 1h-1l-1 1h-1l-1 1h-1l-1 1-2 1h-1v1l-1 1h-1l-1 1h-1l-1 1-1 1h-1l-1 1h-1l-1 1-2 1h-1l-1 1-2 1s-1 0 0 0l-2 1-1 1h-1l-1 1c0-1 0 0 0 0l-1 1h-1l-1 1h-1l-1 1s-1 0 0 0l-1 1h-1l-1 1h-1l-1 1h-1l-1 1-1 1h-1-2v-1h-1-3l-1 1-1 1h-1l-1 1h-1l-1 1-1 1h-1l-2 1-1 1h-1v1h-1l-2 1-1 1h-1l-1 1h-1l-1 1-1 1h-1l-1 1h-1l-1 1-2 1s-1 0 0 0l-1 1v11l4-1 1-1h1v-1h1l1-1h2c1-2 3-2 3-2l1-1 1-1h2l1-1 3-1v-1l1-1 2-1 1-1h2l2-2h1l1-1c0 1 0 0 0 0l1-1h1l2-1 1-1c3-1 5-4 2-3v-1h-1l1-1c0 1 0 0 0 0l2-1h1l1-1 3-1v-1l1-1 2-1 2-1h1l1-1 1-1h2l1-1 1-1c1 0 1 0 0 0h1l1-1 2-1 1-1 1-1h2l1-1c0 1 0 0 0 0l1-1h1l1-1c0 1 0 0 0 0l1-1h2l1-1 2-1 1-1 1-1h2l1-1 1-1h1v-1h1l1-1h2c1-2 3-2 3-2l1-1 1-1h2l1-1 3-1v-1l1-1 2-1 2-1h1l2-1 1-1 2-1 1-1s1 0 0 0h1l1-1 2-1 1-1 1-1h1l1-1h1l2-1 2-1v-1h1l2-1 2-1 1-1 1-1 3-1 1-1h1v-1h1l1-1h2c1-2 3-2 3-2l1-1 1-1h2l1-1 3-1v-1l1-1h2l2-2 3-1 2-1 1-1v-1h1l2-1 2-1 1-1 1-1h2l1-1 2-1 2-1v-1h1l2-1 1-1 2-1 1-1 3-1 3-1v-1l1-1 2-1 2-1h1l1-1 1-1h2l1-1 3-1v-1l2-1 1-1 1-1h2l2-2c2 0 1-2-2-2h-1m27 16l-1 1c0-1 0 0 0 0l-1 1h-2l-1 1-1 1s-1 0 0 0l-1 1h-1l-1 1h-2l-1 1-1 1-1 1h-1l-1 1s-1 0 0 0h-1-1v1l-1 1h-1l-2 1-1 1h-1l-1 1h-1l-1 1h-1l-1 1-1 1h-1l-1 1-1 1h-1l-1 1h-1l-1 1-1 1h-1l-1 1h-1l-1 1-2 1h-1l-1 1-2 1s-1 0 0 0l-1 1h-1l-1 1h-1l-1 1c0-1 0 0 0 0l-1 1h-1l-1 1h-1l-1 1s-1 0 0 0l-1 1h-1l-1 1h-1l-1 1h-1l-1 1-1 1h-1l-2 1-1 1h-1v1h-1l-2 1-1 1h-1l-1 1h-1l-1 1-1 1h-1l-1 1h-1l-1 1-2 1s-1 0 0 0l-1 1h-1l-1 1h-1l-1 1c0-1 0 0 0 0l-1 1h-1l-1 1-2 1-2 1c0-1 0 0 0 0l-2 1s-1 0 0 0l-1 1h-1l-1 1-1 1h-1l-1 1-2 1-2 1-1 1h-1l-1 1h-1l-1 1h-1l-1 1-1 1h-1l-2 1-1 1h-1v1h-1l-2 1-1 1-2 1-2 1-1 1h-1l-1 1h-1v1h-1l-2 1s-1 0 0 0l-2 1-1 1h-1l-1 1c0-1 0 0 0 0l-1 1h-1l-1 1h-1l-2 1-1 1-1 1h-2l-1 1-1 1-1 1h-1l-1 1s-1 0 0 0h-1-1v1l-1 1h-1l-1 1h-1l-1 1h-1l-1 1h-1l-1 1h-1l-1 1h-2-3l-1 1h-1l-1 1h-1l-1 1h-1l-1 1h-1l-1 1-1 1h-1l-2 1-1 1h-1v1h-1l-2 1-1 1-2 1-2 1-1 1h-1l-1 1h-1v1h-1l-2 1s-1 0 0 0l-2 1-1 1h-1l-1 1c0-1 0 0 0 0l-1 1h-1l-1 1-2 1-2 1c0-1 0 0 0 0l-1 1h-2l-1 1-1 1-1 1h-1l-1 1s-1 0 0 0h-1-1v1l-1 1h-1l-1 1h-1l-1 1 1 10h2l1-1 1-1h2l1-1 3-1v-1l1-1 2-1 1-1h2l2-2h1l1-1c0 1 0 0 0 0l1-1h1l2-1 2-1 1-1 1-1h2l1-1 2-1 2-1v-1l2-1 2-1 2-1 2-1h1l1-1 3-1v-1l1-1 2-1 2-1h1l1-1 1-1h2l1-1 1-1c1 0 1 0 0 0h1l1-1 2-1 1-1 1-1v-2l1-1 1-1h1l1-1c1 1 1 1 0 0l1-1h2c1-2 3-2 3-2l1-1 1-1h2l1-1 3-1v-1l1-1 2-1 1-1h2l2-2h1l1-1c0 1 0 0 0 0l1-1h1l2-1 2-1 1-1 1-1h2l1-1 2-1 2-1v-1l2-1 2-1 2-1 2-1h1l1-1 3-1v-1l1-1 2-1 2-1h1l1-1 1-1h2l1-1 1-1c1 0 1 0 0 0h1l1-1 2-1 1-1 1-1h2l1-1c0 1 0 0 0 0l1-1h1l1-1c0 1 0 0 0 0l1-1h2l1-1 2-1 1-1 1-1h2l1-1 1-1h1v-1h1l1-1h2c1-2 3-2 3-2l1-1 1-1h2l1-1 3-1v-1l1-1 2-1 2-1h1l2-1 1-1 2-1 1-1s1 0 0 0h1l1-1 2-1 1-1 1-1h2l1-1 2-1 2-1v-1h1l2-1 2-1 1-1 1-1 3-1 1-1h1l1-1c1 1 1 1 0 0l1-1h2c1-2 3-2 3-2l1-1 1-1h2l1-1 3-2c1 1 1 1 0 0l1-1 2-1 1-1h2l2-2h1v-1c1 1 2-1 2-2l-1-1h-4m29 16l-1 1h-1l-1 1s-1 0 0 0h-1l-1 1h-1v1h-1l-1 1h-1l-1 1h-1l-1 1-3 1-1 1-2 1-1 1h-1v1h-1l-1 1h-1l-1 1-1 1h-1l-1 1h-1l-1 1h-1l-1 1h-1l-1 1h-1l-1 1s-1 0 0 0l-2 1-1 1h-1l-1 1c0-1 0 0 0 0l-1 1h-1l-1 1h-1l-1 1s-1 0 0 0l-1 1h-1l-1 1h-1l-1 1h-1l-1 1-1 1h-1l-1 1s-1 0 0 0h-1l-1 1h-1v1h-1l-2 1-1 1h-1l-1 1h-1l-1 1-1 1h-1l-1 1h-1l-1 1-1 1h-1l-1 1h-1l-1 1-1 1h-1l-1 1h-1l-1 1-2 1h-1l-1 1-2 1s-1 0 0 0l-1 1h-1l-1 1-1 1h-1l-1 1h-1l-1 1h-1l-1 1s-1 0 0 0l-1 1h-1l-1 1h-1l-1 1h-1l-1 1-1 1h-1-3s0-1 0 0l-1-1h-1l-1-1h-1-1v1h-1l-2 1-1 1h-1l-1 1h-1l-1 1h-1l-1 1-2 1-1 1h-1v1h-1l-2 1-1 1-2 1-2 1-1 1h-1l-1 1h-1l-1 1-2 1s-1 0 0 0l-1 1c0-1 0-1 0 0l-1 7s-1 0 0 0h-1-1v1l-1 1h-1l-1 1h-1l-1 1h-1l-1 1h-1l-1 1-1 1h-1l-2 1-1 1h-1v1l-3 2h-1l-2 1-2 1-1 1h-5l-1 1s-1 0 0 0h-1-1v1l-1 1h-1l-1 1h-1l-1 1h-1l-1 1h-1l-1 1h-1l-1 1-2 1h-1v1l-1 1h-1l-1 1h-1l-1 1-1 1h-1l-1 1h-1l-1 1h-1l-1 1h-1l-1 1-2 1s-1 0 0 0l-2 1-1 1h-1l-1 1c0-1 0 0 0 0l-1 1h-1l-1 1h-1l-1 1s-1 0 0 0l-1 1h-1l-1 1h-1l-1 1h-1l-1 1-1 1h-1l-2 1-1 1h-1v1h-1l-2 1-1 1h-1l-1 1h-1l-1 1-1 1h-1l-1 1h-1l-1 1-2 1s-1 0 0 0l-1 1h-1l-1 1-1 1h-1l-1 1h-1l-1 1-2 1h-1l-1 1-2 1s-1 0 0 0l-1 1v9h4c1-2 3-2 3-2l1-1 1-1h2l1-1 3-1v-1l1-1 2-1 1-1h2l2-2h1l1-1c0 1 0 0 0 0l1-1h2l1-1 2-1 1-1 1-1h2l1-1 2-1 2-1v-1h2c1-2 3-2 3-2l1-1 1-1h2l1-1 3-1v-1l1-1h2l2-2 3-1 2-1 1-1v-1h1l2-1 2-1 1-1 1-1h2l1-1 2-1 2-1v-1l2-1 2-1h1l1-1 1-1h2l1-1 3-1v-1l1-1c2 0 5-3 3-3l1-1 2-1v-1l2-1 2-1h1l1-1 1-1h2l1-1 3-1v-1l1-1 2-1 2-1h1l1 2c0 3 0 4 2 4l1 1 1 1 2 1 2 1h1l1 1 1 1 2 1 1 1h1l1 1v1l-1 1h-1l-1 1h-1v1h-1l-2 1s-1 0 0 0l-1 1h-1l-1 1h-1l-1 1c0-1 0 0 0 0l-1 1h-1l-1 1h-1l-2 1h-2l-1 1h-1l-2 1-1 1h-1v1h-1l-2 1-1 1h-1l-1 1c0-1 0 0 0 0l-2 1-1 1h-1l-1 1h-1v1h-1l-2 1s-1 0 0 0l-1 1h-1l-1 1h-1l-1 1c0-1 0 0 0 0l-1 1h-1l-1 1-2 1-2 1c0-1 0 0 0 0l-2 1s-1 0 0 0l-1 1h-1l-1 1-1 1h-1l-1 1-2 1-2 1-1 1h-1l-1 1h-1l-1 1h-1l-1 1-1 1h-1l-2 1-1 1h-1v1l-3 2h-1l-2 1-2 1-1 1h-1l-1 1h-1v1h-1l-2 1s-1 0 0 0l-2 1-1 1h-1l-1 1c0-1 0 0 0 0l-1 1h-1l-1 1h-1l-2 1-1 1-1 1h-2l-1 1-1 1-1 1h-1l-1 1s-1 0 0 0h-1-1v1l-1 1h-1l-2 1-1 1h-1l-1 1h-1l-1 1h-1l-1 1-1 1h-1l-1 1-1 1h-1l-1 1h-1l-1 1v9l2-1h1l1-1h1l2-1 1-1 1-1h2l1-1 2-1 2-1v-1l2-1 2-1 2-1 1-1 3-1 3-1v-1l1-1 2-1 2-1h1l1-1 1-1h2l1-1 3-2 2-1 1-1 1-1h2l1-1c0 1 0 0 0 0l1-1h1l1-1c0 1 0 0 0 0l1-1h2l1-1 2-1 1-1 1-1h2l1-1 1-1h1v-1h1l1-1h2c1-2 3-2 3-2l1-1 1-1h2l1-1 3-1v-1l1-1 2-1 2-1h1l2-1 1-1 2-1 1-1s1 0 0 0h1l1-1 2-1 1-1 1-1h2l1-1 2-1 2-1v-1h1l2-1c0-1 2-2 3-1v-1l1-1 3-1 1-1h1l1-1c1 1 1 1 0 0l1-1 4-2v-2l2-1 2-1 2-1 1-1 3-1 3-1v-1l1-1h5l2 1c-1 0 0 0 0 0l2 1 1 1h1l2 1 1 1s0 1 0 0l1 1h1l1 1 1 1h2v1l-1 1h-1v1h-1l-2 1s-1 0 0 0l-2 1-1 1h-1l-1 1c0-1 0 0 0 0l-1 1h-1l-1 1-2 1-2 1c0-1 0 0 0 0l-2 1s-1 0 0 0l-1 1h-1l-1 1-1 1h-1l-1 1h-1l-1 1h-1l-1 1s-1 0 0 0l-1 1h-1l-1 1h-1l-1 1h-1l-1 1-1 1h-1l-1 1s-1 0 0 0h-1l-1 5-1 1h-1l-1 1c0-1 0 0 0 0l-1 1h-1l-1 1h-1l-2 1-1 1-1 1h-2l-1 1-1 1-1 1h-1l-1 1s-1 0 0 0h-1-1v1l-1 1h-1l-1 1h-1l-1 1h-1l-1 1h-1l-1 1h-1l-1 1-2 1h-1v1l-1 1h-1l-1 1h-1l-1 1-1 1h-1l-1 1h-1l-1 1h-1l-1 1h-1l-1 1-2 1s-1 0 0 0l-2 1-1 1h-1l-1 1c0-1 0 0 0 0l-1 1h-1l-1 1h-1l-1 1s-1 0 0 0l-1 1h-1l-1 1h-1l-1 1h-1l-1 1-1 1h-1l-1 1s-1 0 0 0h-1l-1 1h-1v1h-1l-2 1-1 1h-1l-1 1h-1l-1 1-1 1h-1l-1 1h-1l-1 1-1 1h-1l-1 1h-1l-1 1-1 1h-1l-1 1h-1l-1 1-2 1h-1l-1 1-2 1s-1 0 0 0l-1 1h-1l-1 1-1 1h-1l-1 1h-1l-1 1h-1l-1 1s-1 0 0 0l-1 1h-1l-1 1h-1l-1 1v8h2l2-1 2-1v-1l2-1 2-1 2-1 2-1h1l1-1 3-1v-1l1-1 2-1 2-1h1l1-1 1-1h2l1-1 1-1c1 0 1 0 0 0h1l1-1 2-1 1-1 1-1h1l1-1h1l2-1 2-1v-1h2l1-1 2-1 1-1 1-1h2l1-1 1-1h1v-1h1l1-1h2c1-2 3-2 3-2l1-1 1-1h2l1-1 3-1v-1l1-1 2-1 2-1h1l2-1 1-1 2-1 1-1s1 0 0 0h1l1-1 2-1 1-1 1-1h2l1-1 2-1 2-1v-1h1l2-1 2-1 1-1 1-1 3-1 1-1h1v-1h1l1-1h2c1-2 3-2 3-2l1-1c1-2 2-1 2 2l1 3h1l1 1s0 1 0 0l2 1 2 1 1 1h1l3 2 2 1 1 1-2 2s-1 0 0 0l-1 1h-1l-1 1-1 1h-1l-1 1h-1l-1 1h-1v1h-1l-1 1h-1l-1 1h-1l-1 1h-1l-1 1-1 1h-1l-2 1-1 1h-1v1l-3 2h-1l-2 1-2 1-1 1h-1l-1 1h-1v1h-1l-2 1s-1 0 0 0l-2 1-1 1h-1l-1 1c0-1 0 0 0 0l-1 1h-1l-1 1h-1l-1 1s-1 0 0 0l-1 1h-1l-1 1h-1l-1 1h-1l-1 1-1 1h-1l-1 1s-1 0 0 0h-1l-1 1h-1v1h-1l-2 1-1 1h-1l-1 1h-1l-1 1-1 1h-1l-1 1h-1l-1 1-2 1s-1 0 0 0l-1 1h-1l-1 1h-1l-1 1c0-1 0 0 0 0l-1 1h-1l-1 1-2 1-2 1c0-1 0 0 0 0l-2 1s-1 0 0 0l-1 1h-1l-1 1-1 1h-1l-1 1-2 1-2 1-1 1h-1l-1 1h-1l-1 1h-1l-1 1h-1l-1 1-2 1-1 1h-1v1h-1l-1 1h-1l-1 1-1 1h-1l-1 1h-1l-1 1h-1l-1 1h-1l-1 1-2 1s-1 0 0 0l-2 1-1 1v4l1 1h5l2-1 2-1v-1l2-1 2-1h1l1-1 1-1h2l1-1 3-1v-1l1-1 2-1 2-1h1l1-1 1-1h2l1-1 1-1s1 0 0 0h1l1-1 2-1 1-1 1-1h1l1-1h1l2-1 2-1v-1h2l1-1 2-1 1-1 1-1 3-1 1-1h1v-1h1l2-1 1-1 3-1 1-1 1-1h2l1-1 3-1v-1l1-1 2-1 2-1h1l2-1 2-1 1-1 1-1s1 0 0 0h1l1-1 2-1 1-1 1-1h2l1-1 2-1 2-1v-1h1l2-1 2-1 1-1 1-1 3-1 1-1h1l1-1c1 1 1 1 0 0l1-1h2c1-2 3-2 3-2l1-1 1-1h2l1-1 3-1v-1l1-1h2l2-2 3-1 2-1 1-1v-1h7l1 1 1 1h1l1 1 1 1h2l1 1 1 1 2 1 1 1-2 2s-1 0 0 0l-2 1-1 1h-1l-1 1c0-1 0 0 0 0l-1 1h-1l-1 1-2 1h-1l-1 1-2 1s-1 0 0 0l-2 1-1 1h-1l-1 1c0-1 0 0 0 0l-1 1h-1l-1 1-2 1h-1l-1 1-2 1s-1 0 0 0l-2 1-1 1h-1l-1 1c0-1 0 0 0 0l-1 1h-1l-1 1-1 3-2 4-1 1h-1l-1 1s-1 0 0 0h-1l-1 1h-1v1h-1l-2 1-1 1h-1l-1 1h-1l-1 1h-1l-1 1-1 1h-1l-1 1-1 1h-1l-1 1h-1l-1 1-1 1h-1l-1 1h-1l-1 1-2 1h-1l-1 1-2 1s-1 0 0 0l-1 1h-1l-1 1h-1l-1 1c0-1 0 0 0 0l-1 1h-1l-1 1h-1l-1 1s-1 0 0 0l-1 1h-1l-1 1h-1l-1 1h-1l-1 1-1 1h-1l-2 1-1 1h-1v1h-1l-2 1-1 1h-1l-1 1h-1l-1 1-1 1h-1l-1 1h-1l-1 1-2 1s-1 0 0 0l-1 1h-1l-1 1-1 1h-1l-1 1h-1l-1 1-2 1h-1l-1 1-2 1s-1 0 0 0l-1 1h-1l-1 2 1 1h1l1 1h1l1 1h2l1-1 2-1 2-1v-1l2-1 2-1h1l1-1 1-1h2l1-1 3-1v-1l1-1 2-1 2-1h1l1-1 1-1h2l1-1 1-1s1 0 0 0h1l1-1 2-1 1-1 1-1h1l1-1h1l2-1 2-1v-1h2l1-1 2-1 1-1 1-1 3-1 1-1h1v-1h1l1-1h2c1-2 3-2 3-2l1-1 1-1h2l1-1 3-1v-1l1-1h2l2-2 3-1 2-1 1-1v-1h1c2-2 3 0 3 4h3v-1l1-1 2-1 2-1h1l2-1 1-1 2-1 1-1s1 0 0 0h1l1-1 2-1 1-1 1-1h2l1-1 2-1 2-1v-1h1l2-1 2-1 1-1 1-1 3-1 1-1h1v-1h1l1-1h2c1-2 3-2 3-2l1-1 1-1h2l1-1 3-1v-1l2-1 2 1c-1 0 0 0 0 0l2 1 1 1h1l2 1 1 1 1 1 2 1 1 1v2l-2 1-2 1-1 1h-1l-1 1h-1v1h-1l-2 1s-1 0 0 0l-2 1v1l-1 2h-1l-1 1h-1l-1 1-1 1h-1l-1 1h-1l-1 1-2 1h-1l-1 1-2 1s-1 0 0 0l-1 1h-1l-1 1h-1l-1 1c0-1 0 0 0 0l-1 1h-1l-1 1h-1l-1 1s-1 0 0 0l-1 1h-1l-1 1h-1l-1 1h-1l-1 1-1 1h-1l-2 1-1 1h-1v1h-1l-2 1-1 1h-1l-1 1h-1l-1 1-1 1h-1l-1 1h-1l-1 1-1 1h-1l-1 1h-1l-1 1-1 1h-1l-1 1h-1l-1 1-2 1h-1l-1 1-2 1s-1 0 0 0l-1 1h-1l-1 1h-1l-1 1c0-1 0 0 0 0l-1 1h-1l-1 1h-1l-1 1s-1 0 0 0l-1 1h-1l-1 1h-1l-1 1h-1l-1 1-1 1h-1l-2 1-1 1h-1v1h-1l-2 1-1 1h-1l-1 1h-1l-1 1-1 1h-1l-1 1h-1l-1 1-2 1s-1 0 0 0l-1 1h-1l-1 1-1 1h-1l-1 1h-1l-1 1-2 1h-1l-1 1-2 1c-1 0-1 2 1 2l1 1v1h3l1-1h1l1-1h1l1-1c1 1 1 1 0 0l1-1h2c1-2 3-2 3-2l1-1 1-1h2l1-1 3-1v-1l1-1 2-1 1-1h2l2-2h1l1-1c0 1 0 0 0 0l1-1h1l2-1 2-1 1-1 1-1h2l1-1 2-1 2-1v-1l2-1 2-1 2-1 1-1 3-1 3-1v-1l1-1 2-1 2-1h1l1-1 1-1h2l1-1 3-2 2-1 1-1 1-1h2l1-1c0 1 0 0 0 0l1-1h1l1-1c0 1 0 0 0 0l1-1h2l1-1 2-1 1-1 1-1h2l1-1 2-1 2-1v-1h2c1-2 3-2 3-2l1-1 1-1h2l1-1 3-1v-1l1-1 2-1 3-1h3l1-1 2-1 1-1 1-1h2l1-1 2-1 2-1v-1l2-1 2-1 2-1 1-1h1l3 1 2 1h1l1 1 1 1 2 1 2 1h1l1 1 1 1h1c1 1 0 2-2 3l-1 1h-1l-1 1-2 1-2 1c0-1 0 0 0 0l-1 1h-2l-1 1-1 1-1 1h-1l-2 1-1 1h-1v1h-1l-2 1-1 1-2 1-1 1h-1v1l1 1-1 1-1 1h-1l-1 1-1 1h-1l-1 1h-1l-1 1h-1c-1 0-3 2-2 3l-1 1-1 1-1 1h-1l-1 1h-1l-1 1h-1l-1 1-1 1h-1l-1 1-1 1h-1l-1 1h-1l-1 1-1 1h-1l-1 1h-1l-1 1-2 1h-1l-1 1-2 1s-1 0 0 0l-2 1-1 1h-1l-1 1c0-1 0 0 0 0l-1 1h-1l-1 1h-1l-1 1s-1 0 0 0l-1 1h-1l-1 1h-1l-1 1h-1l-1 1-1 1h-1l-2 1-1 1h-1v1h-1l-2 1-1 1h-1l-1 1h-1l-1 1-1 1h-1l-1 1h-1l-1 1-1 1h-1l-1 1h-1l-1 1-1 1h-1l-1 1h-1l-1 1-2 1h-1l-1 1-2 1s-1 0 0 0l-1 1h-1l-1 1-1 1h-1l-1 1h-1l-1 1h-1l-1 1s-1 0 0 0h-1v2l1 1 1 1h3l2-1 2-1 1-1v-1h1l2-1 2-1 1-1 1-1h2l1-1 2-1 2-1v-1h1l2-1c0-1 2-2 3-1v-1l1-1 3-1 3-1v-1l1-1 2-1 2-1h1l1-1 1-1h2l1-1 3-1v-1l1-1 2-1 1-1h2l2-2h1l1-1c0 1 0 0 0 0l1-1h1l2-1 2-1 1-1 1-1h2l1-1 2-1 2-1v-1l2-1 2-1 2-1 2-1h1l1-1 3-1v-1l1-1 1 1h2l1-1h2l1-1 2-1 1-1 1-1h2l2-2h1v-1h1l1-1 2-1 3-1h1l1 1h4l1-1h1l2-1 2-1 1-1 1-1 3-1 1-1h1v-1h1l1-1h2c1-2 3-2 3-2l1-1 1-1h1l1-1h1l3-2c1 1 1 1 0 0l1-1v-2l1-3s1 0 0 0l2-1 1-1 1-1h2l1-1 3-2c1 1 1 1 0 0l1-1h2l1-1c1 0 1 0 0 0l1-1h1l1-1 1-1h1l1-1 1-1 2-1h1l3-1v-1l1-1h2l1-1c0 1 0 0 0 0l1-1h1v-1h1l2-1h1l1-1s1 0 0 0l2-1 1-1 1-1h2l1-1 2-1 2-1v-1l2-1 2-1 2-1 2-1h1l1-1 3-1v-1l1-1 2-1 2-1h1l1-1 1-1h2l1-1 3-1v-1l2-1 1-1 1-1h2l2-2h1l1-1c0 1 0 0 0 0l1-1h1l2-1 2-1 1-1 1-1h2l1-1 2-1 2-1v-1h1l2-1 1-1 2-1 1-1 3-1 1-1h1l1-1c1 1 1 1 0 0l1-1c2 0 2 0 2-6v-5h-1l-1 1h-1l-1 1h-1l-1 1-1 1h-1l-1 1h-1l-1 1h-1l-1 1s-1 0 0 0l-1 1h-1l-1 1h-1l-1 1h-1l-1 1-1 1h-1l-2 1-1 1h-1v1h-1l-2 1-1 1h-1l-1 1c0-1 0 0 0 0l-2 1-1 1h-1c0 1 0 1 0 0v1h-1-1v1h-1l-2 1s-1 0 0 0l-1 1h-1l-1 1h-1l-1 1c0-1 0 0 0 0l-1 1h-1l-1 1-2 1-2 1c0-1 0 0 0 0l-1 1h-2l-1 1-1 1-1 1h-1l-1 1s-1 0 0 0h-1-1v1l-1 1h-1l-1 1h-1l-1 1h-1l-1 1h-1l-1 1h-1l-1 1-2 1-1 1h-1v1h-1l-1 1h-1l-1 1-1 1h-1l-1 1h-1l-1 1h-1l-2 1-2 1-1 1s-1 0 0 0l-2 1s-1 0 0 0l-1 1h-1l-1 1c0-1 0 0 0 0l-1 1h-1l-1 1h-1l-1 1s-1 0 0 0l-1 1h-1l-1 1h-1l-1 1h-1l-1 1-1 1h-2l-1 1h-1v1l-1 1h-1l-1-1c0-1 0-2-2-2l-1-1-1-1h-1l-1-1h-1l-1-1-1-1-1-1h-1l-2-1c1 0 0 0 0 0l-1-1h-2v-1h1v-1l1-1 2-1 2-1h1l2-1 1-1 2-1 2-2h1l2-1 1-1 1-1h1l1-1h1l2-1 2-1v-1h2l1-1s1 0 0 0l1-1h1v-1h1l1-1h2l2-2h1v-1h1l2-1h1v-1h1s1 0 0 0l2-1 1-1 1-1h1l1-1h1l3-2c1 1 1 1 0 0l1-1h2l1-1c1 0 1 0 0 0l1-1h1l2-1 1-1 2-1 1-1s1 0 0 0h1l1-1 2-1 1-1 1-1h1l1-1h1l2-1 2-1v-1h2l1-1 2-1 1-1 1-1h2l2-2h1v-1h1l2-1 1-1 3-1 1-1 1-1h2l1-1 3-1v-1l1-1 2-1 2-1h1l1-1 1-1h2l1-1 1-1s1 0 0 0h1l1-1 2-1 1-1 1-1h1l1-1h1l2-1 2-1v-1h2l1-1 1-1v-9h-1l-1 1h-1l-2 1-1 1-2 1-2 1-1 1h-1c0 1 0 1 0 0v1h-1-1v1h-1l-2 1s-1 0 0 0l-1 1h-1l-1 1h-1l-1 1c0-1 0 0 0 0l-1 1h-1l-1 1-2 1-2 1c0-1 0 0 0 0l-1 1h-2l-1 1-1 1-1 1h-1l-1 1s-1 0 0 0h-1-1v1l-1 1h-1l-1 1h-1l-1 1h-1l-1 1h-1l-1 1h-1l-1 1-2 1-1 1h-1v1h-1l-1 1h-1l-1 1-1 1h-1l-1 1h-1l-1 1h-1l-1 1h-1l-1 1-2 1s-1 0 0 0l-2 1-1 1h-1l-1 1c0-1 0 0 0 0l-1 1h-1l-1 1h-1l-1 1s-1 0 0 0l-1 1h-1l-1 1h-1l-1 1h-1l-1 1-1 1h-1l-1 1s-1 0 0 0h-1-1v1l-1 1h-1l-2 1-1 1h-1l-2 1-1 1-1 1h-1l-1 1h-1l-1 1h-1v1h-1l-1 1h-1l-1 1-1 1h-1l-1 1h-1l-1 1h-1l-2 1-2 1-1 1s-1 0 0 0l-2 1s-1 0 0 0l-1 1-1 1h-1l-1 1h-1l-1 1h-1l-1 1s-1 0 0 0l-1 1h-1l-1 1h-1l-1 1h-1l-1 1-1 1h-1l-2 1h-4l-1-1c1 0 0 0 0 0l-1-1h-1l-1-1h-1l-1-1h-1l-1-1-1-1-2-1h-1l3-3h1l1-1c0 1 0 0 0 0l1-1h2l1-1 2-1 1-1 1-1h2l2-2h1v-1h1l1-1h2c1-2 3-2 3-2l1-1 1-1h2l1-1 3-2 3-1v-1l1-1h1l1-1 1-3 1-3s1 0 0 0l1-1h1l1-1 1-1h1l1-1h1l3-2h1l2-1v-1l1-1h2l2-2h1v-1h1l1-1 3-1 2-1 1-1 1-1h2l1-1 2-1 2-1v-1l3-1 1-1 2-1 1-1 3-1 3-1v-1l1-1 2-1 2-1h1l1-1 1-1h2l1-1 3-1v-1l1-1 2-1 1-1h2l2-2h1l1-1c0 1 0 0 0 0l1-1h1l2-1 2-1 1-1 1-1h2l1-1 2-1 2-1v-1h1l2-1 1-1 2-1 1-1 3-1 3-1v-1l1-1 2-1 2-1h1l1-1 1-1h2l1-1 3-1v-1l1-1c2 0 2-1 2-5v-4h-2l-1 1h-1v1h-1l-2 1s-1 0 0 0l-2 1-1 1h-1l-1 1c0-1 0 0 0 0l-1 1h-1l-1 1-2 1-2 1c0-1 0 0 0 0l-1 1h-2l-1 1-1 1-1 1h-1l-1 1s-1 0 0 0h-1-1v1l-1 1h-1l-1 1h-1l-1 1h-1l-1 1h-1l-1 1-1 1h-1l-2 1-1 1h-1v1h-1l-2 1-1 1-2 1-2 1-1 1h-1c0 1 0 1 0 0v1h-1-1v1h-1l-2 1s-1 0 0 0l-1 1h-1l-1 1h-1l-1 1c0-1 0 0 0 0l-1 1h-1l-1 1-2 1-2 1c0-1 0 0 0 0l-2 1s-1 0 0 0l-2 1-1 1-1 1h-1l-1 1-2 1-2 1-2 1s-1 0 0 0l-1 1h-1l-2 1-1 1-1 1h-2l-1 1h-1v1l-1 1h-1l-2 1h-1v1l-2 1-2 1-1 1h-1c0 1 0 1 0 0v1h-1-1l-1 1c0-1 0 0 0 0l-2 1s-1 0 0 0l-1 1h-1l-1 1h-1l-1 1c0-1 0 0 0 0-1 1-2 1-2-1l-1-2-1-1-1-1-3-1-1-1c1 0 0 0 0 0l-1-1h-2l-1-1-1-1h-1l-1-1h-1l-1-2h1l1-1 1-1 1-1 1-1h2l2-2h1v-1h1l1-1 3-1 2-1 1-1 1-1h2l1-1 2-1 2-1v-1h2l1-1s1 0 0 0l1-1 2-1 2-1h1l1-1 3-2c1 1 1 1 0 0l1-1h2l1-1c1 0 1 0 0 0l1-1h1l1-1 1-1h1l1-1h1l2-1 1-1 1-1h2v-1l1-1h2l1-1c0 1 0 0 0 0l1-1h1l1-1c0 1 0 0 0 0l1-1h2l1-1 2-1 1-1 1-1h2l1-1 2-1 2-1v-1l2-1 2-1h1l1-1 1-1h2l1-1 3-1v-1l1-1 2-1 2-1h1l1-1 1-1h2l1-1 1-1s1 0 0 0h1l1-1 2-1 1-1 1-1h1l1-1h1l2-1 2-1v-1h2l1-1 2-1 1-1 1-1h2l1-1 1-1h1v-1h1l1-1 2-1 2-1v-2l-1-3v-1h-3l-1 1-2 1-2 1c0-1 0 0 0 0l-2 1s-1 0 0 0l-1 1h-1l-1 1-1 1h-1l-1 1-2 1-2 1-1 1h-1l-1 1h-1l-1 1h-1l-1 1-1 1h-1l-2 1-1 1h-1v1h-1l-2 1-1 1-2 1-2 1-1 1h-1c0 1 0 1 0 0v1h-1-1v1h-1l-2 1s-1 0 0 0l-1 1h-1l-1 1h-1l-1 1c0-1 0 0 0 0l-1 1h-1l-1 1-2 1-2 1c0-1 0 0 0 0l-1 1h-2l-1 1-1 1-1 1h-1l-1 1s-1 0 0 0h-1-1v1l-1 1h-1l-2 1s-1 0 0 0l-1 1h-1l-2 1-1 1-1 1h-1l-2 1h-1v1l-1 1h-1l-2 1-1 1-2 1-2 1-1 1h-1l-1 1h-1l-1 1c0-1 0 0 0 0l-2 1s-1 0 0 0l-1 1h-1l-1 1h-1l-1 1c0-1 0 0 0 0l-1 1h-2v1l-2 1-2 1h-1v1l-2 1-2 1-1 1h-1l-1 1s-1 0 0 0h-1l-1 1h-1v1h-1l-1 1h-1l-1 1h-1l-1 1h-1l-1 1-1 1h-1l-2 1-1 1h-1v1l-3 1-2 1-1-1h-1l-1-1h-1l-1-1-1-1-2-1h-1v-1h-1l-2-1s0-1 0 0l-1-1h-1l-1-1v-1h1l2-1 1-1 2-1 2-1h1l1-1 3-1v-1l1-1 2-1 2-1h1l2-1 1-1 2-1 1-1s1 0 0 0h1l1-1 2-1 1-1 1-1h2l1-1 2-1 2-1v-1h2v-4l1-4h2l2-2h1v-1h1l1-1 3-1 2-1 1-1 1-1h2l1-1 2-1 2-1v-1h2l1-1s1 0 0 0l1-1 2-1 2-1h1l1-1 3-2c1 1 1 1 0 0l1-1h2l1-1c1 0 1 0 0 0l1-1h1l1-1 1-1h2l1-1 1-1c1 0 1 0 0 0h1l1-1 2-1 1-1 1-1h1l1-1h1l2-1 2-1v-1h2l1-1 2-1 1-1 1-1h2l1-1 1-1h1v-1h1l1-1h2c1-2 3-2 3-2l1-1 1-1h2l1-1 3-1v-1l1-1 2-1 1-1 1-1-1-1-1-1-1-1h-1-2l-1 1h-1l-1 1h-1l-1 1-2 1s-1 0 0 0l-1 1h-1l-1 1-1 1h-1l-1 1h-1l-1 1-2 1h-1l-1 1-2 1s-1 0 0 0l-1 1h-1l-1 1-1 1h-1l-1 1h-1l-1 1h-1v1h-1l-1 1h-1l-1 1h-1l-1 1h-1l-1 1-1 1h-1l-2 1h-1v1l-1 1h-1l-2 1-1 1h-1l-1 1c0-1 0 0 0 0l-2 1-1 1h-1c0 1 0 1 0 0v1h-1-1l-1 1c0-1 0 0 0 0l-2 1s-1 0 0 0l-1 1h-1l-1 1h-1l-1 1c0-1 0 0 0 0l-1 1h-1l-1 1-2 1-2 1h-1l-1 1s-1 0 0 0l-2 1-1 1-1 1h-1l-1 1-2 1-2 1c-1 2-3 1-3-1v-2h-1l-1 1h-1l-2 1s-1 0 0 0l-1 1h-1l-1 1c0-1 0 0 0 0l-1 1h-1l-1 1h-1l-1 1s-1 0 0 0l-1 1h-1l-1 1h-1l-1 1h-1l-1 1-1 1h-1l-2 1-1 1h-1v1h-1l-2 1-1 1h-1l-1 1c0-1 0 0 0 0l-2 1-1 1h-1l-1 1h-1v1h-1l-2 1s-1 0 0 0l-1 1h-1l-1 1h-1l-1 1c0-1 0 0 0 0l-1 1h-1l-1 1-2 1-2 1c0-1 0 0 0 0l-2 1s-1 0 0 0h-4c1 0 1 0 0 0l-1-1h-2v-1h-1l-1-1h-1l-1-1h-1l-1-1-1-1-2-1-2-1c1 0 0 0 0 0l-1-1 1-1h1l1-1c0 1 0 0 0 0l1-1h2l1-1 2-1 1-1 1-1h2l1-1 1-1h1v-1h1l1-1h2c1-2 3-2 3-2l1-1 1-1h2l1-1 3-1v-1l1-1 2-1 2-1h1l2-1 1-1 2-1 1-1s1 0 0 0h1l1-1 2-1 1-1 1-1h1l1-1h1l2-1 2-1v-1h2l1-1 2-1 1-1 1-1 3-1 1-1h1v-1h1l2-1 1-1h1s1 0 0 0l2-1 1-1 1-1h1l1-1h1l3-2c1 1 1 1 0 0l1-1h2l1-1c1 0 1 0 0 0l1-1h1l2-1 2-1 1-1v-1l3-1 2-1 1-1 1-1h2l1-1 2-1 2-1v-1l3-1 1-1h2v-1l1-1 3-1 3-1v-1l1-1 2-1 2-1h1l1-1 1-1h2l1-1 3-1v-1l1-1c2 0 1-4-1-4h-1-3l-1 1-1 1h-1l-1 1-1 1h-1l-1 1h-1l-1 1-1 1h-1l-1 1h-1l-1 1h-1l-2 1-2 1-1 1s-1 0 0 0l-2 1s-1 0 0 0l-1 1h-1l-1 1c0-1 0 0 0 0l-1 1h-1l-1 1h-1l-1 1s-1 0 0 0l-1 1h-1l-1 1h-1l-1 1h-1l-1 1-1 1h-2l-1 1h-1v1l-1 1h-1l-2 1-1 1h-1l-2 1-1 1-1 1h-1l-1 1h-1l-1 1h-1v1h-1l-1 1h-1l-1 1-1 1h-1l-1 1h-1l-1 1-2 1h-1l-1 1-2 1s-1 0 0 0l-1 1h-1l-1 1h-1l-1 1c0-1 0 0 0 0l-1 1h-1l-1 1h-1l-1 1s-1 0 0 0l-1 1h-1l-1 1h-1l-1 1h-1l-1 1-1 1h-1l-2 1-1 1h-1v1h-1l-2 1-1 1h-1l-1 1h-1l-1 1-1 1h-1l-1 1h-1l-1 1-2 1s-1 0 0 0l-1 1h-1l-1 1-1 1h-1l-1 1h-1l-1 1-2 1h-1l-1 1-2 1s-1 0 0 0l-1 1h-1l-1 1-1 1h-1l-1 1h-1l-1 1h-1l-1 1s-1 0 0 0l-1 1h-1-3l-1-1-2-1h-1l-1-1h-1v-1h-1l-1-1-1-1h-2l-1-2h-1c-2 1-1-2 1-3l4-2 1-1c0 1 0 0 0 0l1-1h1l1-1h1l2-1 1-1 1-1h2l1-1 2-1 2-1v-1l2-1 2-1h1l1-1-1-2-1-1h-1l-1-1s2-2 3-1v-1l1-1 2-1 1-1h2l2-2h1l1-1c0 1 0 0 0 0l1-1h1l2-1 2-1 1-1 1-1h2l1-1 2-1 2-1v-1l2-1 2-1 2-1 1-1 3-1 3-1v-1l1-1 2-1 2-1h1l1-1 1-1h2l1-1 3-2 2-1 1-1 1-1h2l1-1c0 1 0 0 0 0l1-1h1l1-1c0 1 0 0 0 0l1-1h2l1-1s1 0 0 0l2-1 1-1 1-1h2l1-1 2-1 2-1v-1h2l1-1s1 0 0 0l1-1h1l1-1 1-1h2l1-1 3-2c1 1 1 1 0 0l1-1h2l1-1c1 0 1 0 0 0l1-1h1l1-1 1-1h2l1-1 2-2 1-1c0-1-1-2-2-1v-1h-3m-86 129l1 1h2l1 1 1 1 2 1 1 1h1l3 2c2 1 2 2 1 3h-1l-1 1s-1 0 0 0l-1 1h-1l-1 1h-2l-1 1-1 1-1 1h-1l-1 1s-1 0 0 0h-1l-1 1h-1v1h-1l-2 1-1 1h-1l-1 1h-1l-1 1-1 1h-1l-1 1h-1l-1 1-1 1h-1l-1 1h-1l-1 1-1 1h-1l-1 1h-2l-1 1-1-1-1-1h-1l-1-1h-1l-1-1h-1v-1h-1l-1-1-2-1c1 0 0 0 0 0l-2-1s0-1 0 0l-1-1v-1l1-1h1v-1h1l1-1h2c1-2 3-2 3-2l1-1 1-1h2l1-1 3-1v-1l1-1h2l2-2 3-1 2-1 1-1v-1h1l2-1 2-1 1-1 1-1h2l1-1 1-1 1 1m24 14h1l2 1 1 1h1l1 1 1 1 2 1h1l1 1 2 1 1 1v1c0-1 0-1 0 0l-1 1-1 1h-1l-1 1h-1l-1 1-2 1-2 1-1 1h-1l-1 1h-1l-1 1-1 1h-1l-1 1h-1l-1 1-1 1h-1l-1 1h-1l-1 1h-1l-1 1h-1v1h-1l-2 1s-1 0 0 0l-1 1h-1l-1 1-1 1h-1l-1 1h-1-2l-2-1h-1v-1h-1l-2-2h-1l-1-1h-2l-1-1c1 0 0 0 0 0l-1-1h-1l-1-1h-1v-2h2l1-1 3-1v-1l1-1 2-1 1-1h2l2-2h1l1-1c0 1 0 0 0 0l1-1h1l2-1 2-1 1-1 1-1h2l1-1 2-1 2-1v-1l2-1 2-1 2-1 1-1h2l1 1m147 33l-1 1c0-1 0 0 0 0l-1 1h-1l-1 1h-1l-2 1-1 1-1 1h-2l-1 1-1 1-1 1h-1l-1 1s-1 0 0 0h-1-1v1l-1 1h-1l-2 1-1 1h-1l-1 1h-1l-1 1h-1l-1 1-2 1h-1v1l-1 1h-1l-1 1h-1l-1 1-1 1h-1l-1 1h-1l-1 1-2 1h-1l-1 1-2 1s-1 0 0 0l-2 1-1 1h-1l-1 1c0-1 0 0 0 0l-1 1h-1l-1 1h-1l-1 1s-1 0 0 0l-1 1h-1l-1 1h-1l-1 1h-1l-1 1-1 1h-1l-2 1-1 1h-1v1h-1l-2 1-1 1h-1l-2 1-1 1-1 1h-1l-1 1h-1l-1 1h-1l-1 1s-1 0 0 0l-1 1h-1l-1 1-1 1h-1l-1 1h-1l-1 1h-1l-2 1-2 1-1 1s-1 0 0 0l-2 1s-1 0 0 0l-1 1-1 1h-1l-1 1h-1l-1 1h-1v1h-1l-2 1s-1 0 0 0l-1 1h-1l-1 1h-1l-1 1-1 1h-2l-1 1-1 1h-1v1h-1l-2 1-1 1h-1l-1 1c0-1 0 0 0 0l-2 1-1 1h-1c0 1 0 1 0 0v1h-1-1v1h-1l-2 1s-1 0 0 0l-1 1h-1l-1 1h-1l-1 1c0-1 0 0 0 0l-1 1h-1l-1 1-2 1-2 1c0-1 0 0 0 0l-2 1s-1 0 0 0l-1 1h-1l-1 1-1 1h-1l-1 1s-1 0 0 0h-1-1v1l-1 1h-1l-1 1h-1l-1 1h-1l-1 1h-1l-1 1-1 1h-1l-1 1v2l-1 2h-1l-1 1h-1l-1 1-1 1h-1l-1 1h-1l-1 1h-1v1h-1l-1 1h-1l-1 1h-1l-1 1h-1l-1 1-1 1h-1l-2 1-1 1h-1v1h-1l-2 1-1 1-2 1-2 1-1 1h-1l-1 1h-1v1h-1l-2 1s-1 0 0 0l-2 1-1 1h-1l-1 1c0-1 0 0 0 0l-1 1h-1l-1 1h-1l-2 1-1 1-1 1h-2l-1 1-1 1-1 1h-1l-1 1s-1 0 0 0h-1l-2 3h1v1h4l1-1 1-1h2l1-1 3-2 2-1 1-1 1-1h2l1-1c0 1 0 0 0 0l1-1h1l1-1c0 1 0 0 0 0l1-1h2l1-1 2-1 1-1 1-1h2l1-1 2-1 2-1v-1l2-1 2-1h1l1-1 1-1h2l1-1 3-1v-1l1-1 2-1 2-1h1l1-1 1-1h2l1-1v-1l1 1c0 1 2 2 3 1l1-1c1 1 1 1 0 0l1-1h2c1-2 3-2 3-2l1-1 1-1h2l1-1 3-1v-1l1-1 2-1 1-1h2l2-2h1l1-1c0 1 0 0 0 0l1-1h1l1-1h1l2-1 1-1 1-1h2l1-1 2-1 2-1v-1l2-1 2-1 2-1 1-1 3-1 3-2c1 1 1 1 0 0l1-1h2l1-1c1 0 1 0 0 0l1-1h1l1-1 1-1h1l1-1h1l2-1 1-1 1-1h2v-1l1-1h2l1-1c0 1 0 0 0 0l1-1h1v-1h1l2-1h1l1-1s1 0 0 0l2-1 1-1 1-1h2l1-1 2-1 2-1v-1h2l1-1c1 0 1 0 0 0l2-1 1-1 1-1h2l1-1 3-1v-1l1-1 2-1 2-1h1l1-1 1-1h2l1-1 1-1s1 0 0 0h1l1-1 2-1 1-1 1-1h1l1-1h1l2-1 2-1v-1h2l1-1 2-1 1-1 1-1h2l2-2h1v-1h1l1-1h2c1-2 3-2 3-2l1-1 1-1h2l1-1 3-1v-1l1-1h2l2-2 3-1 2-1 1-1v-1h1l2-1 1-1v-10h-3m1 32l-1 1h-1c0 1 0 1 0 0v1h-1-1v1h-1l-2 1s-1 0 0 0l-1 1h-1l-1 1h-1l-1 1c0-1 0 0 0 0l-1 1h-1l-1 1-2 1-2 1c0-1 0 0 0 0l-1 1h-2l-1 1-1 1-1 1h-1l-1 1s-1 0 0 0h-1-1v1l-1 1h-1l-1 1h-1l-1 1h-1l-1 1h-1l-1 1h-1l-1 1-2 1-1 1h-1v1h-1l-1 1h-1l-1 1-2 1-1 1h-1l-1 1h-1l-1 1h-1l-1 1-2 1s-1 0 0 0l-2 1-1 1h-1l-1 1c0-1 0 0 0 0l-1 1h-1l-1 1h-1l-1 1s-1 0 0 0l-1 1h-1l-1 1h-1l-1 1h-1l-1 1-1 1h-1l-1 1s-1 0 0 0h-1-1v1l-1 1h-1l-2 1-1 1h-1l-1 1-3 1-1 1-1 1h-1l-1 1h-1v1h-1l-1 1h-1l-1 1-1 1h-1l-1 1h-1l-1 1h-1l-2 1-2 1-1 1s-1 0 0 0l-2 1s-1 0 0 0l-1 1h-1l-1 1c0-1 0 0 0 0l-1 1h-1l-1 1h-1l-1 1s-1 0 0 0l-1 1h-1l-1 1h-1l-1 1h-1l-1 1-1 1h-1l-2 1-1 1h-1v1h-1l-2 1-1 1h-1l-1 1c0-1 0 0 0 0l-2 1-1 1h-1l-1 1h-1v1h-1l-2 1s-1 0 0 0l-1 1h-1l-1 1h-1l-1 1c0-1 0 0 0 0l-1 1h-1l-1 1-2 1-2 1c0-1 0 0 0 0l-2 1s-1 0 0 0l-1 1h-1l-1 1-1 1h-1l-1 1-2 1-2 1v2l-1 3h-1l-1 1-1 1h-1l-1 1h-1l-1 1h-1l-1 1h-1l-1 1-2 1s-1 0 0 0l-2 1-1 1h-1l-1 1c0-1 0 0 0 0l-1 1h-1l-1 1h-1l-1 1s-1 0 0 0l-1 1h-1l-1 1h-1l-1 1h-1l-1 1-1 1h-1l-1 1c-1 2 3 3 3 2h1l1-1 1-1h2l1-1 3-1v-1l1-1 2-1 2-1h1l1-1 1-1h2l1-1 1-1c1 0 1 0 0 0h1l1-1 2-1 1-1 1-1h4v1h3l1-1s1 0 0 0h1l1-1 2-1 1-1 1-1h1l1-1h1l2-1 2-1v-1h2l1-1 2-1 1-1 1-1h2l2-2h1v-1h1l2-1 1-1 3-1 1-1 1-1h2l1-1 3-1v-1l1-1 2-1 2-1h1l2-1 2-1 1-1v-1l3-1 2-1 1-1 1-1h2l1-1 2-1 2-1v-1l3-1 1-1h2v-1l1-1 3-1 3-2c1 1 1 1 0 0l1-1 2-1h1c1 0 1 0 0 0l1-1h1l1-1 1-1h1l1-1h1l3-2c1 1 1 1 0 0l1-1 2-1 1-1h2l2-2h1l1-1c0 1 0 0 0 0l1-1h1l2-1 2-1 1-1 1-1h2l1-1 2-1 2-1v-1l2-1 2-1 2-1 2-1h1l1-1 3-1v-1l1-1 2-1 2-1h1l1-1 1-1h2l1-1 3-2 2-1 1-1 1-1h2l1-1c0 1 0 0 0 0l1-1h1l1-1c0 1 0 0 0 0l1-1h2l1-1 2-1 1-1 1-1h2l1-1 2-1 2-1 1-1 1-1v-11h-2m0 32l-1 1h-1v1l-3 2h-1l-2 1-2 1-1 1h-1l-1 1h-1v1h-1l-2 1s-1 0 0 0l-2 1-1 1h-1l-1 1c0-1 0 0 0 0l-1 1h-1l-1 1h-1l-2 1-1 1-1 1h-2l-1 1-1 1-1 1h-1l-1 1s-1 0 0 0h-1-1v1l-1 1h-1l-2 1-1 1h-1l-1 1h-1l-1 1h-1l-1 1-2 1h-1v1l-1 1h-1l-1 1h-1l-1 1-1 1h-1l-1 1h-1l-1 1-2 1h-1l-1 1-2 1s-1 0 0 0l-2 1-1 1h-1l-1 1c0-1 0 0 0 0l-1 1h-1l-1 1h-1l-1 1s-1 0 0 0l-1 1h-1l-1 1h-1l-1 1h-1l-1 1-1 1h-2l-1 1h-1v1l-1 1h-1l-2 1-1 1h-1l-2 1-1 1-1 1h-1l-1 1h-1l-1 1h-1l-1 1s-1 0 0 0l-1 1h-1l-1 1-1 1h-1l-1 1h-1l-1 1h-1l-2 1-2 1-1 1s-1 0 0 0l-1 1h-1l-1 1-1 1h-1l-1 1h-1l-1 1h-1v1h-1l-1 1h-1l-1 1h-1l-1 1h-1l-1 1-1 1h-1l-2 1-1 1h-1v1h-1l-2 1-1 1h-1l-1 1c0-1 0 0 0 0l-2 1-1 1h-1c0 1 0 1 0 0v1h-1-1v1h-1l-2 1s-1 0 0 0l-1 1h-1l-1 1h-1l-1 1c0-1 0 0 0 0l-1 1h-1l-1 1-2 1-2 1c0-1 0 0 0 0l-2 1s-1 0 0 0l-1 6h-1l-1 1h-1l-1 1v1c0 2 1 2 3 1 1-1 2-1 1 1h5l1-1h2c1-2 3-2 3-2l1-1 1-1h2l1-1 3-1v-1l1-1 2-1 2-1h1l1-1 1-1h2l1-1 1-1s1 0 0 0h1l1-1 2-1 1-1 1-1h1l1-1h1l2-1 2-1v-1h2l1-1 2-1 1-1 1-1h2l2-2h1v-1h1l2-1 1-1h1s1 0 0 0l2-1 1-1 1-1h1l1-1h1l3-2c1 1 1 1 0 0l1-1h2l1-1c1 0 1 0 0 0l1-1 3-1 2-1 1-1v-1l3-1 2-1 1-1 1-1h2l1-1 2-1 2-1v-1l3-1 1-1 2-1 1-1 3-1 3-1v-1l1-1 2-1 2-1h1l1-1 1-1h2l1-1 3-1v-1l2-1 1-1 1-1h2l2-2h1l1-1c0 1 0 0 0 0l1-1h1l2-1 2-1 1-1 1-1h2l1-1 2-1 2-1v-1l2-1 2-1 2-1 2-1h1l1-1 3-1v-1l1-1 2-1 2-1h1l1-1 1-1h2l1-1 1-1c1 0 1 0 0 0h1l1-1 1-1v-12h-2"/>
    <path d="M214 27v0h1v-1l-1 1m80 22l1 1h1l-1-1h-1m-9 8l-1 1 1-1c1-1 1-1 0 0m-81 8v0h1v-1l-1 1m67 0l-1 1 1-1c1-1 1-1 0 0M82 71v0h1v-1l-1 1m164 2v0h1v-1l-1 1m-125 7l-1 1h1l1-1h1-2m167 1v0h1v-1l-1 1m11 1h-1 1m-83 8v1c-1 0-1 0 0 0l1-1h-1m57 7l-1 1 1-1c1-1 1-1 0 0m43 0v0h1v-1l-1 1m-58 1v1c-1 0-1 0 0 0l1-1h-1m-60 2v1l2-1h-2m-4 3v0h1v-1l-1 1m-122 6v0h1v-1l-1 1m164 2v0h1v-1l-1 1m63 4l-1 1 1-1c1-1 1-1 0 0m-234 3h1v0h-1m46 0l-1 1h1l1-1h1-2m174 5l-1 1 1-1c1-1 1-1 0 0m-23 5l-1 1 2-1h-1m-14 3v0h1v-1l-1 1m56 5l-1 1 2-1h-1m-116 2v1l2-1h-2m-4 3v0h1v-1l-1 1m100 7l-1 1c-1 0-1 0 0 0l1-1c1 0 0-1 0 0m-93 2l1 1v-1h-2 1m-68 3l-1 1 2-2-1 1m39 0l-1 1v1l1-2c0-1 0-1 0 0m125 2l-1 1 1-1c1-1 1-1 0 0m-14 8l-1 1 1-1c1-1 1-1 0 0m-201 8v0h1v-1l-1 1m157 1l1 1v-1h-2 1m65 2l-1 1 2-1h-1m-132 6v1l2-1h-2m-4 3v0h1v-1l-1 1m219 8c-1 0-1 0 0 0 0 1 0 1 0 0h0m-7 3v1l2-1h-2m-4 3v0h1v-1l-1 1m-202 2l-1 1h1c1 1 1 1 0 0v-1c1-1 0-1 0 0m-29 1l-1 1h1l1-1h1-2m165 3v0h1v-1l-1 1m-123 5l1 1h1l-2-1m47 2v1c-1 0-1 0 0 0l1-1h-1m-167 2l-1 1h1l1-1h1-2m244 1l-1 1 1-1c1-1 1-1 0 0m-31 7v1c-1 0-1 0 0 0l1-1h-1m-120 5v0h1v-1l-1 1m124 3h1v-1l-1 1m93 0l-1 1h1l1-1h1-2m-281 1v0h1v-1l-1 1m166 1v1l2-1h-2m-4 3v0h1v-1l-1 1m-25 1l1 1v-1h-2 1m-195 4c0 1 0 2 1 1s1-1 0 0l-1-1m28 8v1c-1 0-1 0 0 0l1-1h-1m220 3v0h1v-1l-1 1m-19 5l1 1h1l-2-1m-219 2v1l2-1h-2m244 0l-1 1h2v-1h-1m36 1v0h1v-1l-1 1m-284 2v0h1v-1l-1 1m241 2l-1 1 1-1c1-1 1-1 0 0m-75 1v1c-1 0-1 0 0 0l1-1h-1m-22 13v0h1v-1l-1 1m123 4l-1 1 1-1c1-1 1-1 0 0m-87 3l1 2v-1l-1-1c1 0 0-1 0 0m57 2h-1v1l2-1h-1m-171 3v0h1v-1l-1 1m166 0v0h1v-1l-1 1m-2 1l-1 1 2-1h-1m-116 4v1c-1 0-1 0 0 0l1-1h-1m115 9l-1 1 1-1c1-1 1-1 0 0m84 3l-1 1h1l1-1h1-2m-221 1v0h1v-1l-1 1m152 7v1c-1 0-1 0 0 0l1-1h-1m-224 2v0l1-1-1 1m112 1v0h1v-1l-1 1m90 10v0h1v-1l-1 1m21 1h-1 1m-81 4v1l2-1h-2m-60 2v1c-1 0-1 0 0 0l1-1h-1m56 1v0h1v-1l-1 1m106 0v0h1v-1l-1 1m-180 9v1l2-1h-2m-4 3v0h1v-1l-1 1m37 11l-1 1h1l1-1h1-2m126 3l-1 1 1-1c1-1 1-1 0 0m-27 1v1l2-1h-2m-4 3v0h1v-1l-1 1m-66 10v0h1v-1l-1 1"/>
    <path d="M214 27v0h1v-1l-1 1m80 22l1 1h1l-1-1h-1m-9 8l-1 1 1-1c1-1 1-1 0 0m-81 8v0h1v-1l-1 1m67 0l-1 1 1-1c1-1 1-1 0 0M82 71v0h1v-1l-1 1m164 2v0h1v-1l-1 1m-125 7l-1 1h1l1-1h1-2m167 1v0h1v-1l-1 1m11 1h-1 1m-83 8v1c-1 0-1 0 0 0l1-1h-1m57 7l-1 1 1-1c1-1 1-1 0 0m43 0v0h1v-1l-1 1m-58 1v1c-1 0-1 0 0 0l1-1h-1m-60 2v1l2-1h-2m-4 3v0h1v-1l-1 1m-122 6v0h1v-1l-1 1m164 2v0h1v-1l-1 1m63 4l-1 1 1-1c1-1 1-1 0 0m-234 3h1v0h-1m46 0l-1 1h1l1-1h1-2m174 5l-1 1 1-1c1-1 1-1 0 0m-23 5l-1 1 2-1h-1m-14 3v0h1v-1l-1 1m56 5l-1 1 2-1h-1m-116 2v1l2-1h-2m-4 3v0h1v-1l-1 1m100 7l-1 1c-1 0-1 0 0 0l1-1c1 0 0-1 0 0m-93 2l1 1v-1h-2 1m-68 3l-1 1 2-2-1 1m39 0l-1 1v1l1-2c0-1 0-1 0 0m125 2l-1 1 1-1c1-1 1-1 0 0m-14 8l-1 1 1-1c1-1 1-1 0 0m-201 8v0h1v-1l-1 1m157 1l1 1v-1h-2 1m65 2l-1 1 2-1h-1m-132 6v1l2-1h-2m-4 3v0h1v-1l-1 1m219 8c-1 0-1 0 0 0 0 1 0 1 0 0h0m-7 3v1l2-1h-2m-4 3v0h1v-1l-1 1m-202 2l-1 1h1c1 1 1 1 0 0v-1c1-1 0-1 0 0m-29 1l-1 1h1l1-1h1-2m165 3v0h1v-1l-1 1m-123 5l1 1h1l-2-1m47 2v1c-1 0-1 0 0 0l1-1h-1m-167 2l-1 1h1l1-1h1-2m244 1l-1 1 1-1c1-1 1-1 0 0m-31 7v1c-1 0-1 0 0 0l1-1h-1m-120 5v0h1v-1l-1 1m124 3h1v-1l-1 1m93 0l-1 1h1l1-1h1-2m-281 1v0h1v-1l-1 1m166 1v1l2-1h-2m-4 3v0h1v-1l-1 1m-25 1l1 1v-1h-2 1m-195 4c0 1 0 2 1 1s1-1 0 0l-1-1m28 8v1c-1 0-1 0 0 0l1-1h-1m220 3v0h1v-1l-1 1m-19 5l1 1h1l-2-1m-219 2v1l2-1h-2m244 0l-1 1h2v-1h-1m36 1v0h1v-1l-1 1m-284 2v0h1v-1l-1 1m241 2l-1 1 1-1c1-1 1-1 0 0m-75 1v1c-1 0-1 0 0 0l1-1h-1m-22 13v0h1v-1l-1 1m123 4l-1 1 1-1c1-1 1-1 0 0m-87 3l1 2v-1l-1-1c1 0 0-1 0 0m57 2h-1v1l2-1h-1m-171 3v0h1v-1l-1 1m166 0v0h1v-1l-1 1m-2 1l-1 1 2-1h-1m-116 4v1c-1 0-1 0 0 0l1-1h-1m115 9l-1 1 1-1c1-1 1-1 0 0m84 3l-1 1h1l1-1h1-2m-221 1v0h1v-1l-1 1m152 7v1c-1 0-1 0 0 0l1-1h-1m-224 2v0l1-1-1 1m112 1v0h1v-1l-1 1m90 10v0h1v-1l-1 1m21 1h-1 1m-81 4v1l2-1h-2m-60 2v1c-1 0-1 0 0 0l1-1h-1m56 1v0h1v-1l-1 1m106 0v0h1v-1l-1 1m-180 9v1l2-1h-2m-4 3v0h1v-1l-1 1m37 11l-1 1h1l1-1h1-2m126 3l-1 1 1-1c1-1 1-1 0 0m-27 1v1l2-1h-2m-4 3v0h1v-1l-1 1m-66 10v0h1v-1l-1 1"/>
    <path d="M214 27v0h1v-1l-1 1m80 22l1 1h1l-1-1h-1m-9 8l-1 1 1-1c1-1 1-1 0 0m-81 8v0h1v-1l-1 1m67 0l-1 1 1-1c1-1 1-1 0 0M82 71v0h1v-1l-1 1m164 2v0h1v-1l-1 1m-125 7l-1 1h1l1-1h1-2m167 1v0h1v-1l-1 1m11 1h-1 1m-83 8v1c-1 0-1 0 0 0l1-1h-1m57 7l-1 1 1-1c1-1 1-1 0 0m43 0v0h1v-1l-1 1m-58 1v1c-1 0-1 0 0 0l1-1h-1m-60 2v1l2-1h-2m-4 3v0h1v-1l-1 1m-122 6v0h1v-1l-1 1m164 2v0h1v-1l-1 1m63 4l-1 1 1-1c1-1 1-1 0 0m-234 3h1v0h-1m46 0l-1 1h1l1-1h1-2m174 5l-1 1 1-1c1-1 1-1 0 0m-23 5l-1 1 2-1h-1m-14 3v0h1v-1l-1 1m56 5l-1 1 2-1h-1m-116 2v1l2-1h-2m-4 3v0h1v-1l-1 1m100 7l-1 1c-1 0-1 0 0 0l1-1c1 0 0-1 0 0m-93 2l1 1v-1h-2 1m-68 3l-1 1 2-2-1 1m39 0l-1 1v1l1-2c0-1 0-1 0 0m125 2l-1 1 1-1c1-1 1-1 0 0m-14 8l-1 1 1-1c1-1 1-1 0 0m-201 8v0h1v-1l-1 1m157 1l1 1v-1h-2 1m65 2l-1 1 2-1h-1m-132 6v1l2-1h-2m-4 3v0h1v-1l-1 1m219 8c-1 0-1 0 0 0 0 1 0 1 0 0h0m-7 3v1l2-1h-2m-4 3v0h1v-1l-1 1m-202 2l-1 1h1c1 1 1 1 0 0v-1c1-1 0-1 0 0m-29 1l-1 1h1l1-1h1-2m165 3v0h1v-1l-1 1m-123 5l1 1h1l-2-1m47 2v1c-1 0-1 0 0 0l1-1h-1m-167 2l-1 1h1l1-1h1-2m244 1l-1 1 1-1c1-1 1-1 0 0m-31 7v1c-1 0-1 0 0 0l1-1h-1m-120 5v0h1v-1l-1 1m124 3h1v-1l-1 1m93 0l-1 1h1l1-1h1-2m-281 1v0h1v-1l-1 1m166 1v1l2-1h-2m-4 3v0h1v-1l-1 1m-25 1l1 1v-1h-2 1m-195 4c0 1 0 2 1 1s1-1 0 0l-1-1m28 8v1c-1 0-1 0 0 0l1-1h-1m220 3v0h1v-1l-1 1m-19 5l1 1h1l-2-1m-219 2v1l2-1h-2m244 0l-1 1h2v-1h-1m36 1v0h1v-1l-1 1m-284 2v0h1v-1l-1 1m241 2l-1 1 1-1c1-1 1-1 0 0m-75 1v1c-1 0-1 0 0 0l1-1h-1m-22 13v0h1v-1l-1 1m123 4l-1 1 1-1c1-1 1-1 0 0m-87 3l1 2v-1l-1-1c1 0 0-1 0 0m57 2h-1v1l2-1h-1m-171 3v0h1v-1l-1 1m166 0v0h1v-1l-1 1m-2 1l-1 1 2-1h-1m-116 4v1c-1 0-1 0 0 0l1-1h-1m115 9l-1 1 1-1c1-1 1-1 0 0m84 3l-1 1h1l1-1h1-2m-221 1v0h1v-1l-1 1m152 7v1c-1 0-1 0 0 0l1-1h-1m-224 2v0l1-1-1 1m112 1v0h1v-1l-1 1m90 10v0h1v-1l-1 1m21 1h-1 1m-81 4v1l2-1h-2m-60 2v1c-1 0-1 0 0 0l1-1h-1m56 1v0h1v-1l-1 1m106 0v0h1v-1l-1 1m-180 9v1l2-1h-2m-4 3v0h1v-1l-1 1m37 11l-1 1h1l1-1h1-2m126 3l-1 1 1-1c1-1 1-1 0 0m-27 1v1l2-1h-2m-4 3v0h1v-1l-1 1m-66 10v0h1v-1l-1 1"/>
    <path d="M214 27v0h1v-1l-1 1m80 22l1 1h1l-1-1h-1m-9 8l-1 1 1-1c1-1 1-1 0 0m-81 8v0h1v-1l-1 1m67 0l-1 1 1-1c1-1 1-1 0 0M82 71v0h1v-1l-1 1m164 2v0h1v-1l-1 1m-125 7l-1 1h1l1-1h1-2m167 1v0h1v-1l-1 1m11 1h-1 1m-83 8v1c-1 0-1 0 0 0l1-1h-1m57 7l-1 1 1-1c1-1 1-1 0 0m43 0v0h1v-1l-1 1m-58 1v1c-1 0-1 0 0 0l1-1h-1m-60 2v1l2-1h-2m-4 3v0h1v-1l-1 1m-122 6v0h1v-1l-1 1m164 2v0h1v-1l-1 1m63 4l-1 1 1-1c1-1 1-1 0 0m-234 3h1v0h-1m46 0l-1 1h1l1-1h1-2m174 5l-1 1 1-1c1-1 1-1 0 0m-23 5l-1 1 2-1h-1m-14 3v0h1v-1l-1 1m56 5l-1 1 2-1h-1m-116 2v1l2-1h-2m-4 3v0h1v-1l-1 1m100 7l-1 1c-1 0-1 0 0 0l1-1c1 0 0-1 0 0m-93 2l1 1v-1h-2 1m-68 3l-1 1 2-2-1 1m39 0l-1 1v1l1-2c0-1 0-1 0 0m125 2l-1 1 1-1c1-1 1-1 0 0m-14 8l-1 1 1-1c1-1 1-1 0 0m-201 8v0h1v-1l-1 1m157 1l1 1v-1h-2 1m65 2l-1 1 2-1h-1m-132 6v1l2-1h-2m-4 3v0h1v-1l-1 1m219 8c-1 0-1 0 0 0 0 1 0 1 0 0h0m-7 3v1l2-1h-2m-4 3v0h1v-1l-1 1m-202 2l-1 1h1c1 1 1 1 0 0v-1c1-1 0-1 0 0m-29 1l-1 1h1l1-1h1-2m165 3v0h1v-1l-1 1m-123 5l1 1h1l-2-1m47 2v1c-1 0-1 0 0 0l1-1h-1m-167 2l-1 1h1l1-1h1-2m244 1l-1 1 1-1c1-1 1-1 0 0m-31 7v1c-1 0-1 0 0 0l1-1h-1m-120 5v0h1v-1l-1 1m124 3h1v-1l-1 1m93 0l-1 1h1l1-1h1-2m-281 1v0h1v-1l-1 1m166 1v1l2-1h-2m-4 3v0h1v-1l-1 1m-25 1l1 1v-1h-2 1m-195 4c0 1 0 2 1 1s1-1 0 0l-1-1m28 8v1c-1 0-1 0 0 0l1-1h-1m220 3v0h1v-1l-1 1m-19 5l1 1h1l-2-1m-219 2v1l2-1h-2m244 0l-1 1h2v-1h-1m36 1v0h1v-1l-1 1m-284 2v0h1v-1l-1 1m241 2l-1 1 1-1c1-1 1-1 0 0m-75 1v1c-1 0-1 0 0 0l1-1h-1m-22 13v0h1v-1l-1 1m123 4l-1 1 1-1c1-1 1-1 0 0m-87 3l1 2v-1l-1-1c1 0 0-1 0 0m57 2h-1v1l2-1h-1m-171 3v0h1v-1l-1 1m166 0v0h1v-1l-1 1m-2 1l-1 1 2-1h-1m-116 4v1c-1 0-1 0 0 0l1-1h-1m115 9l-1 1 1-1c1-1 1-1 0 0m84 3l-1 1h1l1-1h1-2m-221 1v0h1v-1l-1 1m152 7v1c-1 0-1 0 0 0l1-1h-1m-224 2v0l1-1-1 1m112 1v0h1v-1l-1 1m90 10v0h1v-1l-1 1m21 1h-1 1m-81 4v1l2-1h-2m-60 2v1c-1 0-1 0 0 0l1-1h-1m56 1v0h1v-1l-1 1m106 0v0h1v-1l-1 1m-180 9v1l2-1h-2m-4 3v0h1v-1l-1 1m37 11l-1 1h1l1-1h1-2m126 3l-1 1 1-1c1-1 1-1 0 0m-27 1v1l2-1h-2m-4 3v0h1v-1l-1 1m-66 10v0h1v-1l-1 1"/>
  </g>
</svg>
