<svg xmlns="http://www.w3.org/2000/svg" viewBox="0 0 256 256" fill="#d7dae0">
  <circle cx="131.000001" cy="177.808593" r="9.960938"/>
  <path d="m131.000001,26.999998c-56.372532,0 -102.000001,45.619899 -102.000001,102.000001c0,56.372532 45.619899,102.000001 102.000001,102.000001c56.372532,0 102.000001,-45.619899 102.000001,-102.000001c0,-56.372532 -45.619899,-102.000001 -102.000001,-102.000001zm0,188.062502c-47.564274,0 -86.062501,-38.491852 -86.062501,-86.062501c0,-47.564274 38.491852,-86.062501 86.062501,-86.062501c47.564274,0 86.062501,38.491852 86.062501,86.062501c0,47.564274 -38.491852,86.062501 -86.062501,86.062501z"/>
  <path d="m131.000001,78.199217c-17.575875,0 -31.875,14.299125 -31.875,31.875c0,4.401141 3.567609,7.96875 7.96875,7.96875s7.96875,-3.567609 7.96875,-7.96875c0,-8.787938 7.149563,-15.9375 15.9375,-15.9375c8.787938,0 15.9375,7.149563 15.9375,15.9375c0,8.787938 -7.149563,15.9375 -15.9375,15.9375c-4.401141,0 -7.96875,3.567609 -7.96875,7.96875l0,19.921875c0,4.401141 3.567609,7.96875 7.96875,7.96875c4.401141,0 7.96875,-3.567609 7.96875,-7.96875l0,-12.96157c13.732547,-3.547289 23.90625,-16.041094 23.90625,-30.866555c0,-17.575875 -14.299125,-31.875 -31.875,-31.875z"/>
</svg>
