<svg xmlns="http://www.w3.org/2000/svg" viewBox="0 0 256 256" fill="#d7dae0">
  <g>
    <path stroke="null" d="M227 76c0-9-8-17-17-17-5 0-9 2-12 5l-66-38h-4L62 64c-3-3-8-5-13-5-9 0-17 8-17 17 0 8 6 15 13 17v78l2 3 66 39v5c0 9 7 17 17 17a17 17 0 0 0 16-22l66-39 2-3V93c7-2 13-9 13-17zM41 76c0-5 4-9 8-9 5 0 9 4 9 9s-4 9-9 9c-4 0-8-4-8-9zm89 151c-5 0-9-4-9-9s4-9 9-9 9 4 9 9-4 9-9 9zm12-21a17 17 0 0 0-25 0l-64-38V93a17 17 0 0 0 13-22l64-37 64 37-1 5c0 8 6 15 13 17v75l-64 38zm68-121c-5 0-9-4-9-9s4-9 9-9 9 4 9 9-4 9-9 9zm0 0"/>
    <path stroke="null" d="M187 90l-54-31h-5L74 90l-2 4v63l2 3 54 32a4 4 0 0 0 5 0l54-32 2-3V94l-2-4zm-57-23l47 27-47 27-46-27 46-27zm5 114v-18a4 4 0 1 0-9 0v18l-46-27v-53l48 28a4 4 0 0 0 5 0l48-28v53l-46 27zm0 0"/>
  </g>
</svg>
