<svg xmlns="http://www.w3.org/2000/svg" fill="#d7dae0" viewBox="0 0 256 256">
    <path d="m127.999995,30.00001c-53.485797,0 -96.999995,43.514786 -96.999995,97.000583c0,53.485797 43.514198,96.999407 96.999995,96.999407s96.999995,-43.51361 96.999995,-96.999407c0,-53.485797 -43.514198,-97.000583 -96.999995,-97.000583zm0,176.363627c-43.761695,0 -79.363632,-35.601938 -79.363632,-79.363044c0,-43.761107 35.601938,-79.36422 79.363632,-79.36422s79.363632,35.603113 79.363632,79.36422c0,43.761107 -35.602525,79.363044 -79.363632,79.363044z"/>
    <path d="M127.998819 71.151523c-6.481951 0-11.755224 5.2768-11.755224 11.762866 0 6.480188 5.273272 11.752284 11.755224 11.752284 6.481951 0 11.755224-5.272097 11.755224-11.752284 0-6.486066-5.273272-11.762866-11.755224-11.762866zM127.999995 112.303036c-4.869988 0-8.818181 3.948194-8.818181 8.818181l0 52.909088c0 4.869988 3.948194 8.818181 8.818181 8.818181 4.869988 0 8.818181-3.948194 8.818181-8.818181l0-52.909088c0-4.869988-3.948194-8.818181-8.818181-8.818181z"/>
</svg>
