<svg xmlns="http://www.w3.org/2000/svg" viewBox="0 0 128 128">
    <circle cx="64" cy="64" r="64" fill="#DC3545"/>
    <path d="M66.0464 104.681L64.8399 105.318L65.0255 105.454L66.0464 104.909V106L106 83.3977V80.9419L66.0464 103.544V104.681ZM66.0464 97.2228L58.2506 101.634L58.6218 101.816L66.0464 97.6776V98.5872L106 75.9394V73.6655L66.0464 96.3133V97.2228ZM66.0464 89.81L51.7077 97.905L52.2181 98.2233L66.0464 90.4012V91.1289L106 68.5265V66.4346L66.0464 89.0369V89.81ZM106 38.1021L105.443 37.7837L73.4246 55.8838L69.2483 53.5189L78.993 48.0162V46.6518L100.06 34.7367L99.0394 34.1455L78.993 45.4694V44.287L65.9536 51.6544L61.4524 49.1076L93.471 31.0076L92.5893 30.5073L60.5708 48.6529L56.2088 46.1516L63.3086 42.1496L62.0093 41.3765L86.9281 27.2784L86.1856 26.8691L61.2668 41.0126L60.0139 40.285L52.9142 44.287V45.7423L46.232 49.5169L45.7216 49.2441L26 60.3861V62.2961L47.4385 50.1991L46.9281 49.9262L52.9142 46.5154V48.0162L57.2761 50.5174L52.6357 53.1097L52.3109 52.9277L26 67.8444V69.5725L53.8422 53.7918L53.5174 53.6099L58.1578 50.9722L62.6589 53.5189L52.9142 59.0672V60.0677L26 75.2572V76.8034L52.9142 61.5685V62.7509L57.0905 65.1157L26 82.7155V83.3522L26.6032 83.716L58.297 65.7979L62.6125 68.2537L52.9142 73.6655V74.8934L31.9861 86.763L33.007 87.3542L52.9142 76.0758V77.5311L65.9536 70.1182L69.8979 72.3466L66.0464 74.575V74.9389L38.5754 90.4467L39.4107 90.9469L66.0464 75.8939V76.2577L71.4292 73.2107L75.6984 75.621L68.6914 79.5776L69.3411 79.9414L66.0464 81.806V82.3517L45.1183 94.1758L45.8144 94.5851L66.0464 83.1703V83.716L71.0116 80.8964L71.9861 81.4421L78.993 77.5311V76.3941L106 61.0682V59.2036L78.993 74.4841V73.8019L74.7239 71.3461L106 53.6554V51.9272L73.1926 70.5275L69.2483 68.2991L78.993 62.7509V61.523L106 46.2425V44.6963L78.993 59.9768V59.0217L74.5847 56.5659L106 38.7842V38.1021ZM56.2088 60.8863L65.9536 55.3835L70.0835 57.7484L65.4896 60.3861L60.3852 63.2511L56.2088 60.8863ZM75.6984 60.8863L65.9072 66.3891L61.5916 63.9333L66.0464 61.3866L71.29 58.4305L75.6984 60.8863ZM40.3387 46.1971L80.3387 23.5947L79.7819 23.2764L39.8283 45.8787L39.1787 45.5149L26 52.9732V55.0652L40.9884 46.5609L40.3387 46.1971ZM33.7958 42.5134L73.7958 19.8656L73.3782 19.6382L33.3782 42.286L32.5893 41.8312L26 45.5604V47.8343L34.5847 42.9682L33.7958 42.5134ZM27.2065 38.7842L67.2065 16.1364L66.9745 16L26.9745 38.6478L26 38.1021V40.5579L28.181 39.33L27.2065 38.7842Z" fill="#D7DAE0" stroke="#D7DAE0" stroke-width="0.3"/>
</svg>
